<svg xmlns="http://www.w3.org/2000/svg" xmlns:xlink="http://www.w3.org/1999/xlink" xmlns:lucid="lucid" width="1080" height="900"><g transform="translate(-220 -20)" lucid:page-tab-id="0_0"><path d="M240 46c0-3.3 2.7-6 6-6h308c3.3 0 6 2.7 6 6v848c0 3.3-2.7 6-6 6H246c-3.3 0-6-2.7-6-6z" stroke="#5e5e5e" stroke-width="3" fill-opacity="0"/><use xlink:href="#a" transform="matrix(1,0,0,1,248,48) translate(117.52469135802468 17.77777777777778)"/><path d="M600 46c0-3.3 2.7-6 6-6h308c3.3 0 6 2.7 6 6v848c0 3.3-2.7 6-6 6H606c-3.3 0-6-2.7-6-6z" stroke="#5e5e5e" stroke-width="3" fill-opacity="0"/><use xlink:href="#b" transform="matrix(1,0,0,1,608,48) translate(60.11728395061729 17.77777777777778)"/><use xlink:href="#c" transform="matrix(1,0,0,1,608,48) translate(140.30246913580248 17.77777777777778)"/><use xlink:href="#d" transform="matrix(1,0,0,1,608,48) translate(171.16666666666666 17.77777777777778)"/><path d="M960 46c0-3.3 2.7-6 6-6h308c3.3 0 6 2.7 6 6v848c0 3.3-2.7 6-6 6H966c-3.3 0-6-2.7-6-6z" stroke="#5e5e5e" stroke-width="3" fill-opacity="0"/><use xlink:href="#e" transform="matrix(1,0,0,1,968,48) translate(71.87654320987654 17.77777777777778)"/><use xlink:href="#f" transform="matrix(1,0,0,1,968,48) translate(150.76543209876542 17.77777777777778)"/><path d="M420 120c0 11.05-8.95 20-20 20s-20-8.95-20-20 8.95-20 20-20 20 8.95 20 20z" stroke="#5e5e5e" stroke-width="3"/><path d="M400 142.5V200" stroke="#5e5e5e" stroke-width="2" fill="none"/><path d="M399.93 141.5l1.07-.03v1.06h-2v-1.14z" stroke="#5e5e5e" stroke-width=".05" fill="#5e5e5e"/><path d="M400 215.26L395.36 201h9.28z" stroke="#5e5e5e" stroke-width="2" fill="#5e5e5e"/><path d="M482.5 240H574c3.3 0 6 2.7 6 6v18c0 3.3 2.7 6 6 6h74" stroke="#5e5e5e" stroke-width="2" fill="none"/><path d="M482.53 241h-1.03v-2h1.03z" stroke="#5e5e5e" stroke-width=".05" fill="#5e5e5e"/><path d="M675.26 270L661 274.64v-9.28z" stroke="#5e5e5e" stroke-width="2" fill="#5e5e5e"/><path d="M328 220c-4.42 0-8 3.58-8 8v24c0 4.42 3.58 8 8 8h144c4.42 0 8-3.58 8-8v-24c0-4.42-3.58-8-8-8z" stroke="#5e5e5e" stroke-width="3" fill="#fff"/><use xlink:href="#g" transform="matrix(1,0,0,1,328,228) translate(27.06172839506172 17.77777777777778)"/><path d="M692 240c-6.63 0-12 5.37-12 12v36c0 6.63 5.37 12 12 12h136c6.63 0 12-5.37 12-12v-36c0-6.63-5.37-12-12-12z" stroke="#5e5e5e" stroke-width="3" fill="#fff"/><use xlink:href="#h" transform="matrix(1,0,0,1,688,248) translate(14.71604938271605 17.77777777777778)"/><use xlink:href="#i" transform="matrix(1,0,0,1,688,248) translate(88.60493827160494 17.77777777777778)"/><use xlink:href="#j" transform="matrix(1,0,0,1,688,248) translate(31.382716049382708 44.44444444444444)"/><path d="M332 340c-6.63 0-12 5.37-12 12v36c0 6.63 5.37 12 12 12h136c6.63 0 12-5.37 12-12v-36c0-6.63-5.37-12-12-12z" stroke="#5e5e5e" stroke-width="3" fill="#fff"/><use xlink:href="#k" transform="matrix(1,0,0,1,328,348) translate(26.444444444444443 17.77777777777778)"/><use xlink:href="#l" transform="matrix(1,0,0,1,328,348) translate(14.716049382716044 44.44444444444444)"/><path d="M760 302.5V364c0 3.3-2.7 6-6 6H500" stroke="#5e5e5e" stroke-width="2" fill="none"/><path d="M761 302.53h-2v-1.03h2z" stroke="#5e5e5e" stroke-width=".05" fill="#5e5e5e"/><path d="M484.74 370l14.26-4.64v9.28z" stroke="#5e5e5e" stroke-width="2" fill="#5e5e5e"/><path d="M1012 340c-6.63 0-12 5.37-12 12v36c0 6.63 5.37 12 12 12h216c6.63 0 12-5.37 12-12v-36c0-6.63-5.37-12-12-12z" stroke="#5e5e5e" stroke-width="3" fill="#fff"/><use xlink:href="#m" transform="matrix(1,0,0,1,1008,348) translate(1.6296296296296333 17.77777777777778)"/><use xlink:href="#n" transform="matrix(1,0,0,1,1008,348) translate(116.320987654321 17.77777777777778)"/><use xlink:href="#o" transform="matrix(1,0,0,1,1008,348) translate(197.67901234567898 17.77777777777778)"/><use xlink:href="#d" transform="matrix(1,0,0,1,1008,348) translate(75.64197530864197 44.44444444444444)"/><path d="M400 402.5v33c0 3.3 2.7 6 6 6h620.75c3.32 0 6-2.7 6-6V420" stroke="#5e5e5e" stroke-width="2" fill="none"/><path d="M401 402.53h-2v-1.03h2z" stroke="#5e5e5e" stroke-width=".05" fill="#5e5e5e"/><path d="M1032.75 404.74l4.64 14.26h-9.28z" stroke="#5e5e5e" stroke-width="2" fill="#5e5e5e"/><path d="M1120 402.5v120" stroke="#5e5e5e" stroke-width="2" fill="none"/><path d="M1121 402.53h-2v-1.03h2z" stroke="#5e5e5e" stroke-width=".05" fill="#5e5e5e"/><path d="M1120 537.78l-4.64-14.27h9.28z" stroke="#5e5e5e" stroke-width="2" fill="#5e5e5e"/><path d="M1115.76 544.24c2.34-2.34 6.14-2.34 8.48 0l11.52 11.52c2.34 2.34 2.34 6.14 0 8.48l-11.52 11.52c-2.34 2.34-6.14 2.34-8.48 0l-11.52-11.52c-2.34-2.34-2.34-6.14 0-8.48z" stroke="#5e5e5e" stroke-width="3" fill="#fff"/><path d="M1100 560H977.27c-3.32 0-6 2.7-6 6v8c0 3.3-2.7 6-6 6H860" stroke="#5e5e5e" stroke-width="2" fill="none"/><path d="M1100.97 560.33l.15.67H1100v-2h1.15z" stroke="#5e5e5e" stroke-width=".05" fill="#5e5e5e"/><path d="M844.74 580l14.26-4.64v9.28z" stroke="#5e5e5e" stroke-width="2" fill="#5e5e5e"/><use xlink:href="#p" transform="matrix(1,0,0,1,979.8419218451512,564) translate(0.005000000000000782 14.222222222222223)"/><path d="M696 540c-8.84 0-16 7.16-16 16v48c0 8.84 7.16 16 16 16h128c8.84 0 16-7.16 16-16v-48c0-8.84-7.16-16-16-16z" stroke="#5e5e5e" stroke-width="3" fill="#fff"/><use xlink:href="#q" transform="matrix(1,0,0,1,688,548) translate(26.382716049382722 23.111111111111114)"/><use xlink:href="#o" transform="matrix(1,0,0,1,688,548) translate(92.92592592592592 23.111111111111114)"/><use xlink:href="#r" transform="matrix(1,0,0,1,688,548) translate(1.7222222222222143 49.77777777777778)"/><use xlink:href="#s" transform="matrix(1,0,0,1,688,548) translate(68.38888888888889 49.77777777777778)"/><path d="M677.5 580H566c-3.3 0-6 2.7-6 6v8c0 3.3-2.7 6-6 6h-94" stroke="#5e5e5e" stroke-width="2" fill="none"/><path d="M678.5 581h-1.03v-2h1.03z" stroke="#5e5e5e" stroke-width=".05" fill="#5e5e5e"/><path d="M444.74 600l14.26-4.64v9.28z" stroke="#5e5e5e" stroke-width="2" fill="#5e5e5e"/><path d="M296 560c-8.84 0-16 7.16-16 16v48c0 8.84 7.16 16 16 16h128c8.84 0 16-7.16 16-16v-48c0-8.84-7.16-16-16-16z" stroke="#5e5e5e" stroke-width="3" fill="#fff"/><use xlink:href="#t" transform="matrix(1,0,0,1,288,568) translate(18.45061728395062 23.111111111111114)"/><use xlink:href="#u" transform="matrix(1,0,0,1,288,568) translate(97.21604938271605 23.111111111111114)"/><use xlink:href="#v" transform="matrix(1,0,0,1,288,568) translate(44.839506172839506 49.77777777777778)"/><path d="M360 557.5V486c0-3.3 2.7-6 6-6h695.96c3.32 0 6-2.7 6-6v-54" stroke="#5e5e5e" stroke-width="2" fill="none"/><path d="M361 558.5h-2v-1.03h2z" stroke="#5e5e5e" stroke-width=".05" fill="#5e5e5e"/><path d="M1067.96 404.74l4.64 14.26h-9.27z" stroke="#5e5e5e" stroke-width="2" fill="#5e5e5e"/><path d="M1121 680h-2v-30.6h2zm0-51.92h-2v-48.1h2z" stroke="#5e5e5e" stroke-width=".05" fill="#5e5e5e"/><path d="M1120.33 579.03l.67-.15V580h-2v-1.15z" fill="#5e5e5e"/><path d="M1120.33 579l.7-.15v1.2h-2.06v-1.23zm-1.3 1h1.94v-1.1l-.64.16-1.3-.18z" stroke="#5e5e5e" stroke-width=".05" fill="#5e5e5e"/><path d="M1120 695.26l-4.64-14.26h9.28z" fill="#5e5e5e"/><path d="M1120 698.5l-6-18.5h12zm-3.26-16.5l3.26 10.03 3.26-10.03z" stroke="#5e5e5e" stroke-width=".05" fill="#5e5e5e"/><g><use xlink:href="#w" transform="matrix(1,0,0,1,1108.1975308641975,628.0767573774) translate(0.005000000000000782 14.222222222222223)"/></g><path d="M1056 700c-8.84 0-16 7.16-16 16v48c0 8.84 7.16 16 16 16h128c8.84 0 16-7.16 16-16v-48c0-8.84-7.16-16-16-16z" stroke="#5e5e5e" stroke-width="3" fill="#fff"/><g><use xlink:href="#x" transform="matrix(1,0,0,1,1048,708) translate(33.82098765432099 23.111111111111114)"/><use xlink:href="#y" transform="matrix(1,0,0,1,1048,708) translate(18.38888888888888 49.77777777777778)"/></g><path d="M1037.5 740H946c-3.3 0-6-2.7-6-6v-8c0-3.3-2.7-6-6-6h-74" stroke="#5e5e5e" stroke-width="2" fill="none"/><path d="M1038.5 741h-1.03v-2h1.03z" stroke="#5e5e5e" stroke-width=".05" fill="#5e5e5e"/><path d="M844.74 720l14.26-4.64v9.28z" stroke="#5e5e5e" stroke-width="2" fill="#5e5e5e"/><path d="M696 680c-8.84 0-16 7.16-16 16v48c0 8.84 7.16 16 16 16h128c8.84 0 16-7.16 16-16v-48c0-8.84-7.16-16-16-16z" stroke="#5e5e5e" stroke-width="3" fill="#fff"/><g><use xlink:href="#h" transform="matrix(1,0,0,1,688,688) translate(0.518518518518519 23.111111111111114)"/><use xlink:href="#z" transform="matrix(1,0,0,1,688,688) translate(74.4074074074074 23.111111111111114)"/><use xlink:href="#c" transform="matrix(1,0,0,1,688,688) translate(20.209876543209873 49.77777777777778)"/><use xlink:href="#d" transform="matrix(1,0,0,1,688,688) translate(51.07407407407407 49.77777777777778)"/></g><path d="M760 762.5V820" stroke="#5e5e5e" stroke-width="2" fill="none"/><path d="M761 762.53h-2v-1.03h2z" stroke="#5e5e5e" stroke-width=".05" fill="#5e5e5e"/><path d="M760 835.26L755.36 821h9.28z" stroke="#5e5e5e" stroke-width="2" fill="#5e5e5e"/><path d="M780 860c0 11.05-8.95 20-20 20s-20-8.95-20-20 8.95-20 20-20 20 8.95 20 20z" stroke="#5e5e5e" stroke-width="3" fill="#fff"/><path d="M772 860c0 6.63-5.37 12-12 12s-12-5.37-12-12 5.37-12 12-12 12 5.37 12 12z" stroke="#5e5e5e" stroke-width="3"/><defs><path fill="#333" d="M212-179c-10-28-35-45-73-45-59 0-87 40-87 99 0 60 29 101 89 101 43 0 62-24 78-52l27 14C228-24 195 4 139 4 59 4 22-46 18-125c-6-104 99-153 187-111 19 9 31 26 39 46" id="A"/><path fill="#333" d="M24 0v-261h32V0H24" id="B"/><path fill="#333" d="M24-231v-30h32v30H24zM24 0v-190h32V0H24" id="C"/><path fill="#333" d="M100-194c63 0 86 42 84 106H49c0 40 14 67 53 68 26 1 43-12 49-29l28 8c-11 28-37 45-77 45C44 4 14-33 15-96c1-61 26-98 85-98zm52 81c6-60-76-77-97-28-3 7-6 17-6 28h103" id="D"/><path fill="#333" d="M117-194c89-4 53 116 60 194h-32v-121c0-31-8-49-39-48C34-167 62-67 57 0H25l-1-190h30c1 10-1 24 2 32 11-22 29-35 61-36" id="E"/><path fill="#333" d="M59-47c-2 24 18 29 38 22v24C64 9 27 4 27-40v-127H5v-23h24l9-43h21v43h35v23H59v120" id="F"/><g id="a"><use transform="matrix(0.06172839506172839,0,0,0.06172839506172839,0,0)" xlink:href="#A"/><use transform="matrix(0.06172839506172839,0,0,0.06172839506172839,15.987654320987653,0)" xlink:href="#B"/><use transform="matrix(0.06172839506172839,0,0,0.06172839506172839,20.864197530864196,0)" xlink:href="#C"/><use transform="matrix(0.06172839506172839,0,0,0.06172839506172839,25.74074074074074,0)" xlink:href="#D"/><use transform="matrix(0.06172839506172839,0,0,0.06172839506172839,38.08641975308642,0)" xlink:href="#E"/><use transform="matrix(0.06172839506172839,0,0,0.06172839506172839,50.432098765432094,0)" xlink:href="#F"/><use transform="matrix(0.06172839506172839,0,0,0.06172839506172839,56.60493827160494,0)" xlink:href="#D"/></g><path fill="#333" d="M33 0v-248h34V0H33" id="G"/><path fill="#333" d="M114-163C36-179 61-72 57 0H25l-1-190h30c1 12-1 29 2 39 6-27 23-49 58-41v29" id="H"/><path fill="#333" d="M101-234c-31-9-42 10-38 44h38v23H63V0H32v-167H5v-23h27c-7-52 17-82 69-68v24" id="I"/><path fill="#333" d="M141-36C126-15 110 5 73 4 37 3 15-17 15-53c-1-64 63-63 125-63 3-35-9-54-41-54-24 1-41 7-42 31l-33-3c5-37 33-52 76-52 45 0 72 20 72 64v82c-1 20 7 32 28 27v20c-31 9-61-2-59-35zM48-53c0 20 12 33 32 33 41-3 63-29 60-74-43 2-92-5-92 41" id="J"/><path fill="#333" d="M9 0v-24l116-142H16v-24h144v24L44-24h123V0H9" id="K"/><g id="b"><use transform="matrix(0.06172839506172839,0,0,0.06172839506172839,0,0)" xlink:href="#G"/><use transform="matrix(0.06172839506172839,0,0,0.06172839506172839,6.172839506172839,0)" xlink:href="#E"/><use transform="matrix(0.06172839506172839,0,0,0.06172839506172839,18.51851851851852,0)" xlink:href="#F"/><use transform="matrix(0.06172839506172839,0,0,0.06172839506172839,24.691358024691358,0)" xlink:href="#D"/><use transform="matrix(0.06172839506172839,0,0,0.06172839506172839,37.03703703703704,0)" xlink:href="#H"/><use transform="matrix(0.06172839506172839,0,0,0.06172839506172839,44.382716049382715,0)" xlink:href="#I"/><use transform="matrix(0.06172839506172839,0,0,0.06172839506172839,50.55555555555556,0)" xlink:href="#J"/><use transform="matrix(0.06172839506172839,0,0,0.06172839506172839,62.901234567901234,0)" xlink:href="#K"/></g><path fill="#333" d="M85-194c31 0 48 13 60 33l-1-100h32l1 261h-30c-2-10 0-23-3-31C134-8 116 4 85 4 32 4 16-35 15-94c0-66 23-100 70-100zm9 24c-40 0-46 34-46 75 0 40 6 74 45 74 42 0 51-32 51-76 0-42-9-74-50-73" id="L"/><g id="c"><use transform="matrix(0.06172839506172839,0,0,0.06172839506172839,0,0)" xlink:href="#L"/><use transform="matrix(0.06172839506172839,0,0,0.06172839506172839,12.345679012345679,0)" xlink:href="#D"/></g><path fill="#333" d="M84 4C-5 8 30-112 23-190h32v120c0 31 7 50 39 49 72-2 45-101 50-169h31l1 190h-30c-1-10 1-25-2-33-11 22-28 36-60 37" id="M"/><path fill="#333" d="M135-143c-3-34-86-38-87 0 15 53 115 12 119 90S17 21 10-45l28-5c4 36 97 45 98 0-10-56-113-15-118-90-4-57 82-63 122-42 12 7 21 19 24 35" id="N"/><path fill="#333" d="M100-194c62-1 85 37 85 99 1 63-27 99-86 99S16-35 15-95c0-66 28-99 85-99zM99-20c44 1 53-31 53-75 0-43-8-75-51-75s-53 32-53 75 10 74 51 75" id="O"/><g id="d"><use transform="matrix(0.06172839506172839,0,0,0.06172839506172839,0,0)" xlink:href="#M"/><use transform="matrix(0.06172839506172839,0,0,0.06172839506172839,12.345679012345679,0)" xlink:href="#N"/><use transform="matrix(0.06172839506172839,0,0,0.06172839506172839,23.45679012345679,0)" xlink:href="#M"/><use transform="matrix(0.06172839506172839,0,0,0.06172839506172839,35.80246913580247,0)" xlink:href="#J"/><use transform="matrix(0.06172839506172839,0,0,0.06172839506172839,48.148148148148145,0)" xlink:href="#H"/><use transform="matrix(0.06172839506172839,0,0,0.06172839506172839,55.49382716049382,0)" xlink:href="#C"/><use transform="matrix(0.06172839506172839,0,0,0.06172839506172839,60.37037037037037,0)" xlink:href="#O"/></g><path fill="#333" d="M240 0l2-218c-23 76-54 145-80 218h-23L58-218 59 0H30v-248h44l77 211c21-75 51-140 76-211h43V0h-30" id="P"/><g id="e"><use transform="matrix(0.06172839506172839,0,0,0.06172839506172839,0,0)" xlink:href="#P"/><use transform="matrix(0.06172839506172839,0,0,0.06172839506172839,18.456790123456788,0)" xlink:href="#O"/><use transform="matrix(0.06172839506172839,0,0,0.06172839506172839,30.80246913580247,0)" xlink:href="#L"/><use transform="matrix(0.06172839506172839,0,0,0.06172839506172839,43.148148148148145,0)" xlink:href="#D"/><use transform="matrix(0.06172839506172839,0,0,0.06172839506172839,55.49382716049382,0)" xlink:href="#B"/><use transform="matrix(0.06172839506172839,0,0,0.06172839506172839,60.37037037037037,0)" xlink:href="#O"/></g><path fill="#333" d="M190 0L58-211 59 0H30v-248h39L202-35l-2-213h31V0h-41" id="Q"/><path fill="#333" d="M177-190C167-65 218 103 67 71c-23-6-38-20-44-43l32-5c15 47 100 32 89-28v-30C133-14 115 1 83 1 29 1 15-40 15-95c0-56 16-97 71-98 29-1 48 16 59 35 1-10 0-23 2-32h30zM94-22c36 0 50-32 50-73 0-42-14-75-50-75-39 0-46 34-46 75s6 73 46 73" id="R"/><path fill="#333" d="M96-169c-40 0-48 33-48 73s9 75 48 75c24 0 41-14 43-38l32 2c-6 37-31 61-74 61-59 0-76-41-82-99-10-93 101-131 147-64 4 7 5 14 7 22l-32 3c-4-21-16-35-41-35" id="S"/><g id="f"><use transform="matrix(0.06172839506172839,0,0,0.06172839506172839,0,0)" xlink:href="#Q"/><use transform="matrix(0.06172839506172839,0,0,0.06172839506172839,15.987654320987653,0)" xlink:href="#D"/><use transform="matrix(0.06172839506172839,0,0,0.06172839506172839,28.333333333333332,0)" xlink:href="#R"/><use transform="matrix(0.06172839506172839,0,0,0.06172839506172839,40.67901234567901,0)" xlink:href="#O"/><use transform="matrix(0.06172839506172839,0,0,0.06172839506172839,53.02469135802469,0)" xlink:href="#S"/><use transform="matrix(0.06172839506172839,0,0,0.06172839506172839,64.1358024691358,0)" xlink:href="#C"/><use transform="matrix(0.06172839506172839,0,0,0.06172839506172839,69.01234567901234,0)" xlink:href="#O"/></g><path fill="#333" d="M233-177c-1 41-23 64-60 70L243 0h-38l-65-103H63V0H30v-248c88 3 205-21 203 71zM63-129c60-2 137 13 137-47 0-61-80-42-137-45v92" id="T"/><g id="g"><use transform="matrix(0.06172839506172839,0,0,0.06172839506172839,0,0)" xlink:href="#T"/><use transform="matrix(0.06172839506172839,0,0,0.06172839506172839,15.987654320987653,0)" xlink:href="#D"/><use transform="matrix(0.06172839506172839,0,0,0.06172839506172839,28.333333333333332,0)" xlink:href="#R"/><use transform="matrix(0.06172839506172839,0,0,0.06172839506172839,40.67901234567901,0)" xlink:href="#C"/><use transform="matrix(0.06172839506172839,0,0,0.06172839506172839,45.55555555555556,0)" xlink:href="#N"/><use transform="matrix(0.06172839506172839,0,0,0.06172839506172839,56.66666666666667,0)" xlink:href="#F"/><use transform="matrix(0.06172839506172839,0,0,0.06172839506172839,62.83950617283951,0)" xlink:href="#H"/><use transform="matrix(0.06172839506172839,0,0,0.06172839506172839,70.18518518518519,0)" xlink:href="#J"/><use transform="matrix(0.06172839506172839,0,0,0.06172839506172839,82.53086419753087,0)" xlink:href="#H"/></g><g id="h"><use transform="matrix(0.06172839506172839,0,0,0.06172839506172839,0,0)" xlink:href="#A"/><use transform="matrix(0.06172839506172839,0,0,0.06172839506172839,15.987654320987653,0)" xlink:href="#J"/><use transform="matrix(0.06172839506172839,0,0,0.06172839506172839,28.333333333333332,0)" xlink:href="#H"/><use transform="matrix(0.06172839506172839,0,0,0.06172839506172839,35.67901234567901,0)" xlink:href="#R"/><use transform="matrix(0.06172839506172839,0,0,0.06172839506172839,48.02469135802469,0)" xlink:href="#J"/><use transform="matrix(0.06172839506172839,0,0,0.06172839506172839,60.37037037037037,0)" xlink:href="#H"/></g><path fill="#333" d="M206 0h-36l-40-164L89 0H53L-1-190h32L70-26l43-164h34l41 164 42-164h31" id="U"/><path fill="#333" d="M115-194c53 0 69 39 70 98 0 66-23 100-70 100C84 3 66-7 56-30L54 0H23l1-261h32v101c10-23 28-34 59-34zm-8 174c40 0 45-34 45-75 0-40-5-75-45-74-42 0-51 32-51 76 0 43 10 73 51 73" id="V"/><g id="i"><use transform="matrix(0.06172839506172839,0,0,0.06172839506172839,0,0)" xlink:href="#U"/><use transform="matrix(0.06172839506172839,0,0,0.06172839506172839,15.987654320987653,0)" xlink:href="#D"/><use transform="matrix(0.06172839506172839,0,0,0.06172839506172839,28.333333333333332,0)" xlink:href="#V"/></g><g id="j"><use transform="matrix(0.06172839506172839,0,0,0.06172839506172839,0,0)" xlink:href="#H"/><use transform="matrix(0.06172839506172839,0,0,0.06172839506172839,7.345679012345679,0)" xlink:href="#D"/><use transform="matrix(0.06172839506172839,0,0,0.06172839506172839,19.691358024691358,0)" xlink:href="#R"/><use transform="matrix(0.06172839506172839,0,0,0.06172839506172839,32.03703703703704,0)" xlink:href="#C"/><use transform="matrix(0.06172839506172839,0,0,0.06172839506172839,36.91358024691358,0)" xlink:href="#N"/><use transform="matrix(0.06172839506172839,0,0,0.06172839506172839,48.0246913580247,0)" xlink:href="#F"/><use transform="matrix(0.06172839506172839,0,0,0.06172839506172839,54.19753086419754,0)" xlink:href="#H"/><use transform="matrix(0.06172839506172839,0,0,0.06172839506172839,61.543209876543216,0)" xlink:href="#J"/><use transform="matrix(0.06172839506172839,0,0,0.06172839506172839,73.8888888888889,0)" xlink:href="#H"/></g><g id="k"><use transform="matrix(0.06172839506172839,0,0,0.06172839506172839,0,0)" xlink:href="#C"/><use transform="matrix(0.06172839506172839,0,0,0.06172839506172839,4.876543209876543,0)" xlink:href="#E"/><use transform="matrix(0.06172839506172839,0,0,0.06172839506172839,17.22222222222222,0)" xlink:href="#F"/><use transform="matrix(0.06172839506172839,0,0,0.06172839506172839,23.39506172839506,0)" xlink:href="#H"/><use transform="matrix(0.06172839506172839,0,0,0.06172839506172839,30.74074074074074,0)" xlink:href="#O"/><use transform="matrix(0.06172839506172839,0,0,0.06172839506172839,43.08641975308642,0)" xlink:href="#L"/><use transform="matrix(0.06172839506172839,0,0,0.06172839506172839,55.432098765432094,0)" xlink:href="#M"/><use transform="matrix(0.06172839506172839,0,0,0.06172839506172839,67.77777777777777,0)" xlink:href="#S"/><use transform="matrix(0.06172839506172839,0,0,0.06172839506172839,78.88888888888889,0)" xlink:href="#C"/><use transform="matrix(0.06172839506172839,0,0,0.06172839506172839,83.76543209876543,0)" xlink:href="#H"/></g><path fill="#333" d="M210-169c-67 3-38 105-44 169h-31v-121c0-29-5-50-35-48C34-165 62-65 56 0H25l-1-190h30c1 10-1 24 2 32 10-44 99-50 107 0 11-21 27-35 58-36 85-2 47 119 55 194h-31v-121c0-29-5-49-35-48" id="W"/><g id="l"><use transform="matrix(0.06172839506172839,0,0,0.06172839506172839,0,0)" xlink:href="#C"/><use transform="matrix(0.06172839506172839,0,0,0.06172839506172839,4.876543209876543,0)" xlink:href="#E"/><use transform="matrix(0.06172839506172839,0,0,0.06172839506172839,17.22222222222222,0)" xlink:href="#I"/><use transform="matrix(0.06172839506172839,0,0,0.06172839506172839,23.39506172839506,0)" xlink:href="#O"/><use transform="matrix(0.06172839506172839,0,0,0.06172839506172839,35.74074074074074,0)" xlink:href="#H"/><use transform="matrix(0.06172839506172839,0,0,0.06172839506172839,43.08641975308642,0)" xlink:href="#W"/><use transform="matrix(0.06172839506172839,0,0,0.06172839506172839,61.5432098765432,0)" xlink:href="#J"/><use transform="matrix(0.06172839506172839,0,0,0.06172839506172839,73.88888888888889,0)" xlink:href="#S"/><use transform="matrix(0.06172839506172839,0,0,0.06172839506172839,85,0)" xlink:href="#C"/><use transform="matrix(0.06172839506172839,0,0,0.06172839506172839,89.87654320987654,0)" xlink:href="#O"/><use transform="matrix(0.06172839506172839,0,0,0.06172839506172839,102.22222222222223,0)" xlink:href="#E"/></g><path fill="#333" d="M115-194c55 1 70 41 70 98S169 2 115 4C84 4 66-9 55-30l1 105H24l-1-265h31l2 30c10-21 28-34 59-34zm-8 174c40 0 45-34 45-75s-6-73-45-74c-42 0-51 32-51 76 0 43 10 73 51 73" id="X"/><g id="m"><use transform="matrix(0.06172839506172839,0,0,0.06172839506172839,0,0)" xlink:href="#A"/><use transform="matrix(0.06172839506172839,0,0,0.06172839506172839,15.987654320987653,0)" xlink:href="#O"/><use transform="matrix(0.06172839506172839,0,0,0.06172839506172839,28.333333333333332,0)" xlink:href="#W"/><use transform="matrix(0.06172839506172839,0,0,0.06172839506172839,46.79012345679012,0)" xlink:href="#X"/><use transform="matrix(0.06172839506172839,0,0,0.06172839506172839,59.1358024691358,0)" xlink:href="#D"/><use transform="matrix(0.06172839506172839,0,0,0.06172839506172839,71.48148148148148,0)" xlink:href="#M"/><use transform="matrix(0.06172839506172839,0,0,0.06172839506172839,83.82716049382717,0)" xlink:href="#V"/><use transform="matrix(0.06172839506172839,0,0,0.06172839506172839,96.17283950617285,0)" xlink:href="#J"/></g><g id="n"><use transform="matrix(0.06172839506172839,0,0,0.06172839506172839,0,0)" xlink:href="#E"/><use transform="matrix(0.06172839506172839,0,0,0.06172839506172839,12.345679012345679,0)" xlink:href="#O"/><use transform="matrix(0.06172839506172839,0,0,0.06172839506172839,24.691358024691358,0)" xlink:href="#W"/><use transform="matrix(0.06172839506172839,0,0,0.06172839506172839,43.148148148148145,0)" xlink:href="#V"/><use transform="matrix(0.06172839506172839,0,0,0.06172839506172839,55.49382716049382,0)" xlink:href="#H"/><use transform="matrix(0.06172839506172839,0,0,0.06172839506172839,62.8395061728395,0)" xlink:href="#D"/></g><g id="o"><use transform="matrix(0.06172839506172839,0,0,0.06172839506172839,0,0)" xlink:href="#L"/><use transform="matrix(0.06172839506172839,0,0,0.06172839506172839,12.345679012345679,0)" xlink:href="#D"/></g><path fill="#333" d="M169-182c-1-43-94-46-97-3 18 66 151 10 154 114 3 95-165 93-204 36-6-8-10-19-12-30l50-8c3 46 112 56 116 5-17-69-150-10-154-114-4-87 153-88 188-35 5 8 8 18 10 28" id="Y"/><path fill="#333" d="M25 0v-190h50V0H25zm-5-208v-5l45-51h45v8l-60 48H20" id="Z"/><g id="p"><use transform="matrix(0.04938271604938272,0,0,0.04938271604938272,0,0)" xlink:href="#Y"/><use transform="matrix(0.04938271604938272,0,0,0.04938271604938272,11.851851851851853,0)" xlink:href="#Z"/></g><g id="q"><use transform="matrix(0.06172839506172839,0,0,0.06172839506172839,0,0)" xlink:href="#A"/><use transform="matrix(0.06172839506172839,0,0,0.06172839506172839,15.987654320987653,0)" xlink:href="#J"/><use transform="matrix(0.06172839506172839,0,0,0.06172839506172839,28.333333333333332,0)" xlink:href="#H"/><use transform="matrix(0.06172839506172839,0,0,0.06172839506172839,35.67901234567901,0)" xlink:href="#R"/><use transform="matrix(0.06172839506172839,0,0,0.06172839506172839,48.02469135802469,0)" xlink:href="#J"/></g><path fill="#333" d="M108 0H70L1-190h34L89-25l56-165h34" id="aa"/><g id="r"><use transform="matrix(0.06172839506172839,0,0,0.06172839506172839,0,0)" xlink:href="#E"/><use transform="matrix(0.06172839506172839,0,0,0.06172839506172839,12.345679012345679,0)" xlink:href="#M"/><use transform="matrix(0.06172839506172839,0,0,0.06172839506172839,24.691358024691358,0)" xlink:href="#D"/><use transform="matrix(0.06172839506172839,0,0,0.06172839506172839,37.03703703703704,0)" xlink:href="#aa"/><use transform="matrix(0.06172839506172839,0,0,0.06172839506172839,48.14814814814815,0)" xlink:href="#O"/></g><g id="s"><use transform="matrix(0.06172839506172839,0,0,0.06172839506172839,0,0)" xlink:href="#H"/><use transform="matrix(0.06172839506172839,0,0,0.06172839506172839,7.345679012345679,0)" xlink:href="#D"/><use transform="matrix(0.06172839506172839,0,0,0.06172839506172839,19.691358024691358,0)" xlink:href="#R"/><use transform="matrix(0.06172839506172839,0,0,0.06172839506172839,32.03703703703704,0)" xlink:href="#C"/><use transform="matrix(0.06172839506172839,0,0,0.06172839506172839,36.91358024691358,0)" xlink:href="#N"/><use transform="matrix(0.06172839506172839,0,0,0.06172839506172839,48.0246913580247,0)" xlink:href="#F"/><use transform="matrix(0.06172839506172839,0,0,0.06172839506172839,54.19753086419754,0)" xlink:href="#H"/><use transform="matrix(0.06172839506172839,0,0,0.06172839506172839,61.543209876543216,0)" xlink:href="#O"/></g><g id="t"><use transform="matrix(0.06172839506172839,0,0,0.06172839506172839,0,0)" xlink:href="#A"/><use transform="matrix(0.06172839506172839,0,0,0.06172839506172839,15.987654320987653,0)" xlink:href="#O"/><use transform="matrix(0.06172839506172839,0,0,0.06172839506172839,28.333333333333332,0)" xlink:href="#H"/><use transform="matrix(0.06172839506172839,0,0,0.06172839506172839,35.67901234567901,0)" xlink:href="#H"/><use transform="matrix(0.06172839506172839,0,0,0.06172839506172839,43.02469135802469,0)" xlink:href="#C"/><use transform="matrix(0.06172839506172839,0,0,0.06172839506172839,47.901234567901234,0)" xlink:href="#R"/><use transform="matrix(0.06172839506172839,0,0,0.06172839506172839,60.24691358024691,0)" xlink:href="#D"/></g><g id="u"><use transform="matrix(0.06172839506172839,0,0,0.06172839506172839,0,0)" xlink:href="#B"/><use transform="matrix(0.06172839506172839,0,0,0.06172839506172839,4.876543209876543,0)" xlink:href="#O"/><use transform="matrix(0.06172839506172839,0,0,0.06172839506172839,17.22222222222222,0)" xlink:href="#N"/></g><g id="v"><use transform="matrix(0.06172839506172839,0,0,0.06172839506172839,0,0)" xlink:href="#L"/><use transform="matrix(0.06172839506172839,0,0,0.06172839506172839,12.345679012345679,0)" xlink:href="#J"/><use transform="matrix(0.06172839506172839,0,0,0.06172839506172839,24.691358024691358,0)" xlink:href="#F"/><use transform="matrix(0.06172839506172839,0,0,0.06172839506172839,30.864197530864196,0)" xlink:href="#O"/><use transform="matrix(0.06172839506172839,0,0,0.06172839506172839,43.20987654320987,0)" xlink:href="#N"/></g><path fill="#333" d="M175 0L67-191c6 58 2 128 3 191H24v-248h59L193-55c-6-58-2-129-3-193h46V0h-61" id="ab"/><path fill="#333" d="M110-194c64 0 96 36 96 99 0 64-35 99-97 99-61 0-95-36-95-99 0-62 34-99 96-99zm-1 164c35 0 45-28 45-65 0-40-10-65-43-65-34 0-45 26-45 65 0 36 10 65 43 65" id="ac"/><g id="w"><use transform="matrix(0.04938271604938272,0,0,0.04938271604938272,0,0)" xlink:href="#ab"/><use transform="matrix(0.04938271604938272,0,0,0.04938271604938272,12.790123456790125,0)" xlink:href="#ac"/></g><path fill="#333" d="M232-93c-1 65-40 97-104 97C67 4 28-28 28-90v-158h33c8 89-33 224 67 224 102 0 64-133 71-224h33v155" id="ad"/><g id="x"><use transform="matrix(0.06172839506172839,0,0,0.06172839506172839,0,0)" xlink:href="#ad"/><use transform="matrix(0.06172839506172839,0,0,0.06172839506172839,15.987654320987653,0)" xlink:href="#N"/><use transform="matrix(0.06172839506172839,0,0,0.06172839506172839,27.098765432098766,0)" xlink:href="#M"/><use transform="matrix(0.06172839506172839,0,0,0.06172839506172839,39.44444444444444,0)" xlink:href="#J"/><use transform="matrix(0.06172839506172839,0,0,0.06172839506172839,51.79012345679012,0)" xlink:href="#H"/><use transform="matrix(0.06172839506172839,0,0,0.06172839506172839,59.1358024691358,0)" xlink:href="#C"/><use transform="matrix(0.06172839506172839,0,0,0.06172839506172839,64.01234567901234,0)" xlink:href="#O"/></g><g id="y"><use transform="matrix(0.06172839506172839,0,0,0.06172839506172839,0,0)" xlink:href="#T"/><use transform="matrix(0.06172839506172839,0,0,0.06172839506172839,15.987654320987653,0)" xlink:href="#D"/><use transform="matrix(0.06172839506172839,0,0,0.06172839506172839,28.333333333333332,0)" xlink:href="#R"/><use transform="matrix(0.06172839506172839,0,0,0.06172839506172839,40.67901234567901,0)" xlink:href="#C"/><use transform="matrix(0.06172839506172839,0,0,0.06172839506172839,45.55555555555556,0)" xlink:href="#N"/><use transform="matrix(0.06172839506172839,0,0,0.06172839506172839,56.66666666666667,0)" xlink:href="#F"/><use transform="matrix(0.06172839506172839,0,0,0.06172839506172839,62.83950617283951,0)" xlink:href="#H"/><use transform="matrix(0.06172839506172839,0,0,0.06172839506172839,70.18518518518519,0)" xlink:href="#J"/><use transform="matrix(0.06172839506172839,0,0,0.06172839506172839,82.53086419753087,0)" xlink:href="#L"/><use transform="matrix(0.06172839506172839,0,0,0.06172839506172839,94.87654320987656,0)" xlink:href="#O"/></g><path fill="#333" d="M30-248c87 1 191-15 191 75 0 78-77 80-158 76V0H30v-248zm33 125c57 0 124 11 124-50 0-59-68-47-124-48v98" id="ae"/><g id="z"><use transform="matrix(0.06172839506172839,0,0,0.06172839506172839,0,0)" xlink:href="#ae"/><use transform="matrix(0.06172839506172839,0,0,0.06172839506172839,14.814814814814813,0)" xlink:href="#J"/><use transform="matrix(0.06172839506172839,0,0,0.06172839506172839,27.160493827160494,0)" xlink:href="#R"/><use transform="matrix(0.06172839506172839,0,0,0.06172839506172839,39.50617283950617,0)" xlink:href="#C"/><use transform="matrix(0.06172839506172839,0,0,0.06172839506172839,44.382716049382715,0)" xlink:href="#E"/><use transform="matrix(0.06172839506172839,0,0,0.06172839506172839,56.72839506172839,0)" xlink:href="#J"/></g></defs></g></svg>